<?xml version="1.0" standalone="no"?>
<!DOCTYPE svg PUBLIC "-//W3C//DTD SVG 20010904//EN"
 "http://www.w3.org/TR/2001/REC-SVG-20010904/DTD/svg10.dtd">
<svg version="1.0" xmlns="http://www.w3.org/2000/svg"
 width="225.000000pt" height="225.000000pt" viewBox="0 0 225.000000 225.000000"
 preserveAspectRatio="xMidYMid meet">
<metadata>
Created by potrace 1.14, written by Peter Selinger 2001-2017
</metadata>
<g transform="translate(0.000000,225.000000) scale(0.100000,-0.100000)"
fill="#000000" stroke="none">
<path d="M221 2092 c-19 -9 -44 -30 -55 -45 -21 -28 -21 -34 -21 -922 0 -888
0 -894 21 -922 11 -15 36 -36 55 -45 32 -17 95 -18 904 -18 809 0 872 1 904
18 19 9 44 30 55 45 21 28 21 34 21 922 0 888 0 894 -21 922 -11 15 -36 36
-55 45 -32 17 -95 18 -904 18 -809 0 -872 -1 -904 -18z m339 -282 l0 -160
-140 0 -140 0 0 160 0 160 140 0 140 0 0 -160z m990 -685 l0 -845 -425 0 -425
0 0 845 0 845 425 0 425 0 0 -845z m420 685 l0 -160 -140 0 -140 0 0 160 0
160 140 0 140 0 0 -160z m-1410 -460 l0 -160 -140 0 -140 0 0 160 0 160 140 0
140 0 0 -160z m1410 0 l0 -160 -140 0 -140 0 0 160 0 160 140 0 140 0 0 -160z
m-1410 -450 l0 -160 -140 0 -140 0 0 160 0 160 140 0 140 0 0 -160z m1410 0
l0 -160 -140 0 -140 0 0 160 0 160 140 0 140 0 0 -160z m-1410 -460 l0 -160
-140 0 -140 0 0 160 0 160 140 0 140 0 0 -160z m1410 0 l0 -160 -140 0 -140 0
0 160 0 160 140 0 140 0 0 -160z"/>
<path d="M955 1748 c-28 -16 -35 -28 -35 -64 0 -59 17 -64 207 -64 152 0 172
2 186 18 10 10 17 32 17 48 0 65 -27 74 -207 74 -91 0 -156 -5 -168 -12z"/>
<path d="M908 1424 c-53 -28 -58 -52 -58 -299 0 -249 4 -271 60 -300 64 -33
93 -23 283 96 123 76 182 119 192 139 23 44 19 110 -8 142 -12 15 -98 74 -191
133 -183 113 -215 123 -278 89z m211 -212 c67 -42 123 -81 123 -87 0 -10 -238
-165 -254 -165 -4 0 -8 74 -8 165 0 91 3 165 8 165 4 0 63 -35 131 -78z"/>
<path d="M937 612 c-10 -10 -17 -32 -17 -48 0 -64 27 -74 205 -74 179 0 205 9
205 76 0 59 -17 64 -207 64 -152 0 -172 -2 -186 -18z"/>
</g>
</svg>
